<svg width="24" height="23" viewBox="0 0 24 23" fill="none" xmlns="http://www.w3.org/2000/svg">
<path fill-rule="evenodd" clip-rule="evenodd" d="M6 3.83335C4.89543 3.83335 4 4.69148 4 5.75002V17.25C4 18.3086 4.89543 19.1667 6 19.1667H18C19.1046 19.1667 20 18.3086 20 17.25V7.90627C20 6.84772 19.1046 5.9896 18 5.9896H12.8284C12.0328 5.9896 11.2697 5.6867 10.7071 5.14754L9.62868 4.11404C9.44114 3.93432 9.18679 3.83335 8.92157 3.83335H6ZM2 5.75002C2 3.63293 3.79086 1.91669 6 1.91669H8.92157C9.71722 1.91669 10.4803 2.21959 11.0429 2.75876L12.1213 3.79225C12.3089 3.97197 12.5632 4.07294 12.8284 4.07294H18C20.2091 4.07294 22 5.78918 22 7.90627V17.25C22 19.3671 20.2091 21.0834 18 21.0834H6C3.79086 21.0834 2 19.3671 2 17.25V5.75002Z" fill="white"/>
<path fill-rule="evenodd" clip-rule="evenodd" d="M12 8.625C12.5523 8.625 13 9.05406 13 9.58333V11.5H15C15.5523 11.5 16 11.9291 16 12.4583C16 12.9876 15.5523 13.4167 15 13.4167H13V15.3333C13 15.8626 12.5523 16.2917 12 16.2917C11.4477 16.2917 11 15.8626 11 15.3333L11 13.4167H9C8.44772 13.4167 8 12.9876 8 12.4583C8 11.9291 8.44772 11.5 9 11.5H11V9.58333C11 9.05406 11.4477 8.625 12 8.625Z" fill="white"/>
</svg>
