<svg width="100" height="100" viewBox="0 0 100 100" fill="none" xmlns="http://www.w3.org/2000/svg">
<path d="M0 6C0 2.68629 2.68629 0 6 0H94C97.3137 0 100 2.68629 100 6V94C100 97.3137 97.3137 100 94 100H6C2.68629 100 0 97.3137 0 94V6Z" fill="#525861" fill-opacity="0.85"/>
<path d="M46.9318 55.1818V54.9773C46.9545 52.8068 47.1818 51.0795 47.6136 49.7955C48.0455 48.5114 48.6591 47.4716 49.4545 46.6761C50.25 45.8807 51.2045 45.1477 52.3182 44.4773C52.9886 44.0682 53.5909 43.5852 54.125 43.0284C54.6591 42.4602 55.0795 41.8068 55.3864 41.0682C55.7045 40.3295 55.8636 39.5114 55.8636 38.6136C55.8636 37.5 55.6023 36.5341 55.0795 35.7159C54.5568 34.8977 53.858 34.267 52.983 33.8239C52.108 33.3807 51.1364 33.1591 50.0682 33.1591C49.1364 33.1591 48.2386 33.3523 47.375 33.7386C46.5114 34.125 45.7898 34.733 45.2102 35.5625C44.6307 36.392 44.2955 37.4773 44.2045 38.8182H39.9091C40 36.8864 40.5 35.233 41.4091 33.858C42.3295 32.483 43.5398 31.4318 45.0398 30.7045C46.5511 29.9773 48.2273 29.6136 50.0682 29.6136C52.0682 29.6136 53.8068 30.0114 55.2841 30.8068C56.7727 31.6023 57.9205 32.6932 58.7273 34.0795C59.5455 35.4659 59.9545 37.0455 59.9545 38.8182C59.9545 40.0682 59.7614 41.1989 59.375 42.2102C59 43.2216 58.4545 44.125 57.7386 44.9205C57.0341 45.7159 56.1818 46.4205 55.1818 47.0341C54.1818 47.6591 53.3807 48.3182 52.7784 49.0114C52.1761 49.6932 51.7386 50.5057 51.4659 51.4489C51.1932 52.392 51.0455 53.5682 51.0227 54.9773V55.1818H46.9318ZM49.1136 65.2727C48.2727 65.2727 47.5511 64.9716 46.9489 64.3693C46.3466 63.767 46.0455 63.0455 46.0455 62.2045C46.0455 61.3636 46.3466 60.642 46.9489 60.0398C47.5511 59.4375 48.2727 59.1364 49.1136 59.1364C49.9545 59.1364 50.6761 59.4375 51.2784 60.0398C51.8807 60.642 52.1818 61.3636 52.1818 62.2045C52.1818 62.7614 52.0398 63.2727 51.7557 63.7386C51.483 64.2045 51.1136 64.5795 50.6477 64.8636C50.1932 65.1364 49.6818 65.2727 49.1136 65.2727Z" fill="#9BA5B4" fill-opacity="0.85"/>
</svg>
